<?xml version="1.0" encoding="iso-8859-1"?>
<!-- Generator: Adobe Illustrator 21.0.0, SVG Export Plug-In . SVG Version: 6.00 Build 0)  -->
<svg xmlns="http://www.w3.org/2000/svg" xmlns:xlink="http://www.w3.org/1999/xlink" version="1.1" id="Capa_1" x="0px" y="0px" viewBox="0 0 511.002 511.002" style="enable-background:new 0 0 511.002 511.002;" xml:space="preserve" width="512" height="512">
<g>
	<g>
		<path style="fill:#326ED3;" d="M122.302,263.83C54.864,263.83,0,208.965,0,141.528S54.864,19.227,122.302,19.227    c67.437,0,122.301,54.864,122.301,122.301S189.738,263.83,122.302,263.83z"/>
	</g>
	<g>
		<path style="fill:#0841A3;" d="M122.302,263.83V19.227c67.437,0,122.301,54.864,122.301,122.301S189.738,263.83,122.302,263.83z"/>
	</g>
	<g>
		<path style="fill:#FDAB29;" d="M388.7,263.83c-67.437,0-122.301-54.864-122.301-122.301S321.264,19.227,388.7,19.227    c67.438,0,122.302,54.864,122.302,122.301S456.138,263.83,388.7,263.83z"/>
	</g>
	<g>
		<path style="fill:#F07F22;" d="M388.7,263.83V19.227c67.438,0,122.302,54.864,122.302,122.301S456.138,263.83,388.7,263.83z"/>
	</g>
	<g>
		<path style="fill:#FD9593;" d="M255,491.775c-67.438,0-122.302-54.864-122.302-122.301S187.563,247.172,255,247.172    s122.302,54.864,122.302,122.301S322.438,491.775,255,491.775z"/>
	</g>
	<g>
		<path style="fill:#FC5755;" d="M255,491.775V247.172c67.438,0,122.302,54.864,122.302,122.301S322.438,491.775,255,491.775z"/>
	</g>
	<g>
		<g>
			<path style="fill:#EDF5FF;" d="M122.302,207.199c-30.92,0-57.953-21.939-64.277-52.167l29.363-6.145     c3.433,16.405,18.116,28.312,34.914,28.312c17.167,0,31.912-12.219,35.061-29.054l29.488,5.516     C181.049,184.683,153.901,207.199,122.302,207.199z"/>
		</g>
		<g>
			<g>
				<path style="fill:#EDF5FF;" d="M88.501,126.787c7.846,0,15.363-6.899,15-15c-0.364-8.127-6.591-15-15-15      c-7.846,0-15.363,6.899-15,15C73.865,119.914,80.092,126.787,88.501,126.787L88.501,126.787z"/>
			</g>
		</g>
		<g>
			<g>
				<path style="fill:#D7E9FF;" d="M153.699,126.787c7.846,0,15.363-6.899,15-15c-0.364-8.127-6.591-15-15-15      c-7.846,0-15.363,6.899-15,15C139.063,119.914,145.29,126.787,153.699,126.787L153.699,126.787z"/>
			</g>
		</g>
	</g>
	<g>
		<g>
			<path style="fill:#EDF5FF;" d="M220.545,422.183l-29.488-5.516c5.802-31.022,32.949-53.539,64.549-53.539     c30.92,0,57.953,21.939,64.277,52.167l-29.363,6.145c-3.433-16.405-18.116-28.312-34.914-28.312     C238.438,393.128,223.694,405.348,220.545,422.183z"/>
		</g>
		<g>
			<g>
				<path style="fill:#EDF5FF;" d="M221.596,351.013c7.846,0,15.363-6.899,15-15c-0.364-8.127-6.591-15-15-15      c-7.846,0-15.363,6.899-15,15C206.96,344.14,213.187,351.013,221.596,351.013L221.596,351.013z"/>
			</g>
		</g>
		<g>
			<g>
				<path style="fill:#D7E9FF;" d="M286.794,351.013c7.846,0,15.363-6.899,15-15c-0.364-8.127-6.591-15-15-15      c-7.846,0-15.363,6.899-15,15C272.158,344.14,278.385,351.013,286.794,351.013L286.794,351.013z"/>
			</g>
		</g>
	</g>
	<g>
		<g>
			<path style="fill:#EDF5FF;" d="M354.796,124.823c7.846,0,15.363-6.899,15-15c-0.364-8.127-6.591-15-15-15     c-7.846,0-15.363,6.899-15,15C340.16,117.95,346.386,124.823,354.796,124.823L354.796,124.823z"/>
		</g>
	</g>
	<g>
		<g>
			<path style="fill:#D7E9FF;" d="M419.993,124.823c7.846,0,15.363-6.899,15-15c-0.364-8.127-6.591-15-15-15     c-7.846,0-15.363,6.899-15,15C405.357,117.95,411.584,124.823,419.993,124.823L419.993,124.823z"/>
		</g>
	</g>
	<g>
		<rect x="333.931" y="151.787" style="fill:#EDF5FF;" width="108.141" height="30"/>
	</g>
	<g>
		<rect x="388.701" y="151.787" style="fill:#D7E9FF;" width="53.371" height="30"/>
	</g>
	<g>
		<path style="fill:#D7E9FF;" d="M157.362,148.145c-3.148,16.835-17.894,29.054-35.061,29.054c0,0,0,0,0,0v30c0,0,0,0,0,0    c31.6,0,58.747-22.516,64.549-53.539L157.362,148.145z"/>
	</g>
	<g>
		<path style="fill:#D7E9FF;" d="M255.605,363.128c-0.203,0-0.403,0.012-0.605,0.013v30c0.202-0.003,0.403-0.013,0.605-0.013    c16.798,0,31.481,11.907,34.914,28.312l29.363-6.145C313.559,385.068,286.525,363.128,255.605,363.128z"/>
	</g>
</g>















</svg>
