<svg height="469pt" viewBox="0 0 469 469.33334" width="469pt" xmlns="http://www.w3.org/2000/svg"><path d="m184.890625 235.007812c-15.570313-34.289062-54.316406-51.519531-90.210937-40.125-35.890626 11.398438-57.59375 47.828126-50.53125 84.816407-11.964844-4.839844-25.667969-2.015625-34.742188 7.164062-9.074219 9.175781-11.742188 22.90625-6.765625 34.816407 4.972656 11.910156 16.621094 19.660156 29.527344 19.652343h149.332031c28.773438.066407 52.390625-22.753906 53.304688-51.515625.917968-28.761718-21.191407-53.039062-49.914063-54.808594zm0 0" fill="#b8c3cb"/><path d="m184.890625 235.007812c-15.570313-34.289062-54.316406-51.519531-90.210937-40.125-35.890626 11.398438-57.59375 47.828126-50.53125 84.816407-11.964844-4.839844-25.667969-2.015625-34.742188 7.164062-9.074219 9.175781-11.742188 22.90625-6.765625 34.816407 4.972656 11.910156 16.621094 19.660156 29.527344 19.652343h149.332031c28.773438.066407 52.390625-22.753906 53.304688-51.515625.917968-28.761718-21.191407-53.039062-49.914063-54.808594zm0 0" fill="#ccd4da"/><path d="m191.777344 294.535156c1.78125-14.558594-2.53125-29.203125-11.914063-40.472656-9.382812-11.269531-23-18.164062-37.640625-19.054688-.085937-.1875-.175781-.378906-.269531-.566406-18.253906-37.9375-75.042969-36.695312-92.507813 1.617188-4.375 9.609375-6.628906 20.046875-6.613281 30.609375.054688 4.375.496094 8.734375 1.316407 13.03125-11.964844-4.839844-25.667969-2.015625-34.742188 7.164062-9.074219 9.175781-11.742188 22.90625-6.765625 34.816407 4.972656 11.910156 16.621094 19.660156 29.527344 19.652343h103.867187c27.464844 0 52.496094-19.527343 55.742188-46.796875zm0 0" fill="#dfe4e7"/><path d="m102.917969 238.582031c-6.800781-6.800781-20.113281-4.515625-29.734375 5.101563-9.617188 9.621094-11.902344 22.933594-5.101563 29.734375s20.113281 4.515625 29.734375-5.101563c9.617188-9.621094 11.902344-22.933594 5.101563-29.734375zm0 0" fill="#edf0f2"/><path d="m40.875 300.625c-3.402344-3.402344-10.054688-2.257812-14.867188 2.550781-4.808593 4.808594-5.949218 11.464844-2.550781 14.867188 3.402344 3.398437 10.058594 2.257812 14.867188-2.550781 4.808593-4.8125 5.953125-11.464844 2.550781-14.867188zm0 0" fill="#ccd4da"/><path d="m437.5 106.667969c-3.945312.019531-7.851562.773437-11.519531 2.222656-3.058594-19.078125-16.214844-35.003906-34.371094-41.605469-18.160156-6.605468-38.472656-2.851562-53.070313 9.804688-14.601562 12.652344-21.203124 32.226562-17.242187 51.136718-.394531-.019531-.730469-.226562-1.128906-.226562-11.777344.007812-21.320313 9.558594-21.320313 21.332031 0 11.777344 9.542969 21.328125 21.320313 21.335938h117.332031c17.671875 0 32-14.328125 32-32 0-17.675781-14.328125-32-32-32zm0 0" fill="#ccd4da"/><path d="m426.832031 138.667969c.058594-10.566407-5.132812-20.472657-13.855469-26.441407-8.71875-5.964843-19.832031-7.21875-29.660156-3.335937-.03125-.183594-.058594-.363281-.089844-.546875-5.699218-33.363281-56.824218-33.140625-62.34375.253906-1.078124 6.511719-.9375 13.167969.414063 19.628906-.394531-.019531-.730469-.226562-1.128906-.226562-11.777344.007812-21.320313 9.558594-21.320313 21.332031 0 11.777344 9.542969 21.328125 21.320313 21.335938h74.664062c17.675781 0 32-14.328125 32-32zm0 0" fill="#dfe4e7"/><path d="m340.285156 107.882812c-2.726562-2.730468-9.167968-.707031-14.390625 4.511719-5.21875 5.222657-7.242187 11.664063-4.511719 14.390625 2.726563 2.726563 9.167969.707032 14.386719-4.515625 5.222657-5.21875 7.242188-11.660156 4.515625-14.386719zm0 0" fill="#edf0f2"/><path d="m256.167969 149.332031h-42.667969v-85.332031c0-21.332031 42.667969-21.332031 42.667969-21.332031zm0 0" fill="#677e8f"/><path d="m277.5 320h-42.667969v-192s42.667969 0 42.667969 21.332031zm0 0" fill="#556e81"/><path d="m298.832031 469.332031h-64v-192s64 0 64 21.335938zm0 0" fill="#556e81"/><path d="m320.167969 469.332031h-106.667969v-128s106.667969 0 106.667969 42.667969zm0 0" fill="#556e81"/><path d="m256.167969 341.332031h21.332031v128h-21.332031zm0 0" fill="#7f92a0"/><path d="m320.167969 405.332031h-85.335938v-21.332031h85.335938zm0 0" fill="#456075"/><path d="m298.832031 341.332031h-85.332031v-21.332031h85.332031zm0 0" fill="#556e81"/><path d="m298.832031 384h21.335938v85.332031h-21.335938zm0 0" fill="#93a3af"/><path d="m277.5 298.667969h21.332031v64h-21.332031zm0 0" fill="#93a3af"/><path d="m277.5 320h21.332031v21.332031h-21.332031zm0 0" fill="#adb9c2"/><path d="m256.167969 149.332031h21.332031v128h-21.332031zm0 0" fill="#93a3af"/><path d="m320.167969 405.332031h-21.335938v-21.332031h21.335938zm0 0" fill="#adb9c2"/><path d="m234.832031 256h-42.664062v-128c0-21.332031 42.664062-21.332031 42.664062-21.332031zm0 0" fill="#677e8f"/><path d="m234.832031 469.332031h-64v-213.332031c0-21.332031 64-21.332031 64-21.332031zm0 0" fill="#677e8f"/><path d="m170.832031 277.332031h85.335938v21.335938h-85.335938zm0 0" fill="#556e81"/><path d="m192.167969 170.667969h64v21.332031h-64zm0 0" fill="#556e81"/><path d="m234.832031 469.332031h-85.332031v-128c0-42.664062 85.332031-42.664062 85.332031-42.664062zm0 0" fill="#677e8f"/><path d="m192.167969 341.332031h21.332031v128h-21.332031zm0 0" fill="#7f92a0"/><path d="m149.5 341.332031h21.332031v128h-21.332031zm0 0" fill="#93a3af"/><path d="m170.832031 256h21.335938v64h-21.335938zm0 0" fill="#93a3af"/><path d="m170.832031 277.332031h21.335938v21.335938h-21.335938zm0 0" fill="#adb9c2"/><path d="m192.167969 128h21.332031v106.667969h-21.332031zm0 0" fill="#93a3af"/><path d="m192.167969 170.667969h21.332031v21.332031h-21.332031zm0 0" fill="#adb9c2"/><path d="m213.5 64h21.332031v42.667969h-21.332031zm0 0" fill="#adb9c2"/><path d="m234.832031 0h21.335938v469.332031h-21.335938zm0 0" fill="#456075"/><path d="m149.5 384h85.332031v21.332031h-85.332031zm0 0" fill="#556e81"/><path d="m149.5 384h21.332031v21.332031h-21.332031zm0 0" fill="#adb9c2"/><path d="m277.5 192h-21.332031v-21.332031h21.332031zm0 0" fill="#adb9c2"/><path d="m192.167969 320h21.332031v21.332031h-21.332031zm0 0" fill="#adb9c2"/><g fill="#7f92a0"><path d="m213.5 298.667969h21.332031v21.332031h-21.332031zm0 0"/><path d="m213.5 256h21.332031v21.332031h-21.332031zm0 0"/><path d="m213.5 213.332031h21.332031v21.335938h-21.332031zm0 0"/><path d="m213.5 149.332031h21.332031v21.335938h-21.332031zm0 0"/></g></svg>